<svg width="107" height="33" viewBox="0 0 107 33" fill="none" xmlns="http://www.w3.org/2000/svg">
<g opacity="0.3">
<path fill-rule="evenodd" clip-rule="evenodd" d="M3 25V11.7283C3 7.19269 8.24144 6.23818 12 7.52729V10.0572C9.40586 9.10266 6.49429 9.34105 6.49429 12.2534H10.6766V14.7838H6.49429V24.9521L3 25Z" fill="#222222"/>
<path fill-rule="evenodd" clip-rule="evenodd" d="M19.0528 10H21.6318L22.1583 12.0033H25.3689V14.593H22.5267V20.6029C22.5267 21.8243 23.1055 22.4108 24.2107 22.4108H26V25H22.5267C20.211 25 19 23.8276 19 21.5308V10H19.0528Z" fill="#222222"/>
<mask id="mask0" mask-type="alpha" maskUnits="userSpaceOnUse" x="0" y="0" width="29" height="33">
<path fill-rule="evenodd" clip-rule="evenodd" d="M0 33H29V0H0V33Z" fill="white"/>
</mask>
<g mask="url(#mask0)">
<path fill-rule="evenodd" clip-rule="evenodd" d="M13 25H17V12H13V25Z" fill="#222222"/>
<path fill-rule="evenodd" clip-rule="evenodd" d="M13 10H17V7H13V10Z" fill="#222222"/>
<path fill-rule="evenodd" clip-rule="evenodd" d="M29 25C25.9445 29.831 20.6105 33 14.5 33C8.3895 33 3.0555 29.831 0 25C3.573 28.3247 8.752 30.3503 14.5 30.3503C20.248 30.4024 25.427 28.3247 29 25Z" fill="#222222"/>
<path fill-rule="evenodd" clip-rule="evenodd" d="M3.21263 4.75359V3.86699C3.71737 4.06411 4.32793 4.16268 4.99214 4.16268C5.49688 4.16268 5.73584 4.01483 5.73584 3.71914C5.73584 3.44833 5.57637 3.30048 5.23109 3.30048H4.40791C3.47841 3.30048 3 2.85694 3 1.99522C3 1.10813 3.69054 0.665072 5.04529 0.665072C5.62952 0.665072 6.16059 0.738756 6.69166 0.911005V1.79809C6.18742 1.60096 5.62952 1.50239 5.01847 1.50239C4.38108 1.50239 4.08897 1.65024 4.08897 1.94593C4.08897 2.21675 4.27477 2.36459 4.64687 2.36459H5.39057C6.39955 2.36459 6.93062 2.80766 6.93062 3.66986C6.93062 4.55646 6.26691 5 4.96531 5C4.3016 5 3.7437 4.90144 3.21263 4.75359ZM7.70115 4.95072V0.689474H8.60382L8.73696 1.23158C9.26803 0.862201 9.7991 0.689474 10.3038 0.689474C10.8881 0.689474 11.2865 0.886603 11.5255 1.28086C12.1097 0.886603 12.6676 0.689474 13.1723 0.689474C14.155 0.689474 14.6329 1.23158 14.6329 2.31531V4.95072H13.4644V2.26603C13.4644 1.79809 13.2518 1.55167 12.8271 1.55167C12.4818 1.55167 12.1097 1.72392 11.7381 2.0933V4.95072H10.5691V2.26603C10.5691 1.77321 10.357 1.55167 9.93175 1.55167C9.56014 1.55167 9.18854 1.72392 8.84327 2.0933V4.95072H7.70115ZM15.5092 3.62057C15.5092 2.73397 16.1734 2.31531 17.5014 2.31531C17.8993 2.31531 18.2714 2.33971 18.5635 2.389V2.11818C18.5635 1.7488 18.1651 1.55167 17.3682 1.55167C16.8635 1.55167 16.3592 1.62536 15.8808 1.7488V0.886603C16.3856 0.763636 16.8903 0.689474 17.3682 0.689474C18.9351 0.689474 19.732 1.15742 19.732 2.0933V4.95072H19.1477L18.643 4.65502C18.2446 4.85215 17.8198 4.95072 17.3682 4.95072C16.1203 4.95072 15.5092 4.50718 15.5092 3.62057ZM18.5635 3.20191C18.2714 3.15263 17.9261 3.12775 17.5014 3.12775C16.9435 3.12775 16.6514 3.30048 16.6514 3.62057C16.6514 3.94067 16.8903 4.1134 17.3419 4.1134C17.8198 4.1134 18.2182 3.98995 18.5367 3.76842V3.20191H18.5635ZM20.8741 4.95072V0.689474H21.7773L21.9099 1.23158C22.3083 0.862201 22.7331 0.689474 23.1847 0.689474V1.55167C22.7599 1.55167 22.3615 1.72392 22.0162 2.0933V4.95072H20.8741ZM23.9016 0H24.7516L24.9374 0.689474H26V1.55167H25.0705V3.52201C25.0705 3.91627 25.2563 4.1134 25.6279 4.1134H26V4.97512H25.0437C24.2736 4.97512 23.8752 4.58134 23.8752 3.8177V0H23.9016Z" fill="#222222"/>
</g>
</g>
<g style="mix-blend-mode:multiply" opacity="0.3">
<path d="M44.0251 19.308H45.9691V15.996H49.1371V14.124H45.9691V10.812H44.0251V14.124H40.8571V15.996H44.0251V19.308Z" fill="#222222"/>
</g>
<g opacity="0.3">
<path fill-rule="evenodd" clip-rule="evenodd" d="M66 19.5296V5.38251H74.6162C76.4011 5.38251 77.6791 5.92372 78.4723 6.7473C79.0455 7.33234 79.3759 8.06918 79.3759 8.86969C79.3759 10.0827 78.6272 11.166 77.5691 11.7077C79.2435 12.272 80.1471 13.5703 80.1471 15.2184C80.1471 16.3451 79.7063 17.3869 78.8031 18.2516C77.9215 19.0752 76.8419 19.5296 74.8806 19.5296H66ZM69.1731 7.95996V11.0582H74.2417C74.836 11.0582 75.2993 10.9285 75.6297 10.6037C75.9396 10.2996 76.114 9.88641 76.1145 9.45533C76.1133 9.07096 75.9542 8.70347 75.6737 8.43658C75.3653 8.11361 74.9465 7.95996 74.2417 7.95996H69.1731ZM69.1731 16.9736V13.3988H74.77C75.4533 13.3988 75.9601 13.6151 76.3569 14.0055C76.6653 14.3303 76.8637 14.7423 76.8637 15.1968C76.8561 15.6562 76.6754 16.0965 76.3569 16.4319C75.9825 16.7784 75.4313 16.9736 74.77 16.9736H69.1731Z" fill="#222222"/>
<rect x="83.2056" y="5.38251" width="3.05884" height="14.1471" fill="#222222"/>
<path fill-rule="evenodd" clip-rule="evenodd" d="M106.529 12.614C106.529 8.42111 102.851 5 98.2651 5V5.00047C93.6778 5.00047 90.088 8.42112 90.088 12.6144C90.088 16.8961 93.6792 20.2942 98.2651 20.2942C102.851 20.2942 106.529 16.8956 106.529 12.614ZM103.206 12.6151C103.206 15.3298 101.034 17.5811 98.2652 17.5811C95.5393 17.5811 93.4125 15.3298 93.4125 12.6151C93.4125 9.94649 95.5393 7.7375 98.2652 7.7375C101.034 7.7375 103.206 9.94461 103.206 12.6151Z" fill="#222222"/>
<path fill-rule="evenodd" clip-rule="evenodd" d="M66 22.5881V30.6176L66.6333 30.6162V27.0751H70.5323L72.5438 30.6176H73.2647L71.1783 27.015C72.445 26.8425 73.2273 25.9451 73.2273 24.863C73.2266 24.3001 73.0086 23.7588 72.6183 23.3506C72.1466 22.8589 71.4509 22.5881 70.4578 22.5881H66ZM66.6331 26.5235V23.1419H70.4576C71.1902 23.1419 71.7364 23.3141 72.1337 23.7197C72.4298 24.0228 72.5947 24.4288 72.5932 24.8511C72.5932 25.7485 71.8976 26.5235 70.7803 26.5235H66.6331Z" fill="#222222"/>
<rect x="75.1759" y="22.5881" width="0.76471" height="8.02946" fill="#222222"/>
<path d="M78.235 22.5881H85.1174V23.1417H82.0001V30.6176H81.3641V23.1417H78.235V22.5881Z" fill="#222222"/>
<path d="M94.0495 30.6176V23.6702H93.9888L90.7592 29.0559H90.5383L87.3095 23.6702H87.2484V30.6176H86.6467V22.5881H87.3836L90.6619 28.0725H90.6855L93.9638 22.5881H94.6762V30.6176H94.0495Z" fill="#222222"/>
<path fill-rule="evenodd" clip-rule="evenodd" d="M105.765 26.7754C105.765 24.4658 103.804 22.5881 101.349 22.5881C98.8955 22.5881 96.9708 24.4658 96.9708 26.7754C96.9708 29.1227 98.8941 31 101.349 31C103.804 31 105.765 29.1227 105.765 26.7754ZM105.111 26.7755C105.111 28.8013 103.446 30.444 101.349 30.444C99.265 30.444 97.6363 28.8013 97.6363 26.7755C97.6363 24.7744 99.2645 23.1439 101.349 23.1439C103.446 23.1439 105.111 24.7744 105.111 26.7755Z" fill="#222222"/>
</g>
</svg>
